<svg fill="none" height="222" viewBox="0 0 350 222" width="350" xmlns="http://www.w3.org/2000/svg"><path d="m179.878 198.384c-.222.318-.38.724-.676.941-2.066 1.519-4.496 1.933-6.952 2.324-2.979.475-5.44-.486-6.798-2.85-.41-.714-.722-1.503-.96-2.293-.1-.332-.016-.862.198-1.121.899-1.08 1.879-2.092 3.086-3.408.665 2.858 1.546 5.229 4.369 6.208 2.519.874 4.988.607 7.733.199zm-22.02-10.766c-.159.978-.385 1.852-.396 2.856-.01 1.012-.159 1.896-.496 2.849-.726 2.06-1.253 4.228-1.727 6.358-.48 2.155-1.412 4.138-2.068 6.236-.343 1.092-.629 2.169-1.123 3.208-.444.934-.864 1.819-1.163 2.813-1.232 4.116-4.061 9.105-8.695 9.8-1.373.205-3.494.671-4.541-.542-.562-.649-.843-1.618-1.175-2.398-.42-.986-.628-1.789-.357-2.847.105-.406 1.972-2.78 2.44-1.963.429.75.863 1.5 1.334 2.226.368.568.744 1.386 1.356 1.735.556.318 1.275.216 1.885.162.505-.045 1.012-.088 1.513-.164.058-.008.529-.125.763-.155.092-.12.274-.31.324-.385.176-.26.35-.527.502-.8.405-.721.645-1.507.884-2.295.531-1.761 1.502-3.328 2.032-5.073.547-1.797 1.241-3.525 1.855-5.297.623-1.797 1.015-3.671 1.595-5.484.547-1.715 1.476-3.543 1.621-5.339.075-.908.116-1.768.366-2.648.193-.675.362-1.353.415-2.057.133-1.777-.495-2.795-2.251-3.235-1.58-.398-3.355-.214-4.972-.242-.483-.008.043-.856.138-.992.318-.452.818-.905 1.363-1.049 2.343-.62 4.751-1.192 7.058-.07 1.797.874 1.804 3.044 1.52 4.792zm-38.809-3.985c-.009-.012-.019-.024-.029-.036.063-.058.121-.115.172-.173-.047.07-.095.139-.143.209zm19.415 18.032c.901-1.823 1.007-3.692.957-5.7-.023-.945-.108-1.921-.005-2.864.095-.884.421-1.718.601-2.584.189-.901.137-1.736.174-2.643.04-.997.49-1.882.868-2.783.382-.911.69-1.849 1.005-2.784.245-.721.836-1.792.568-2.556-.164-.463-1.039.322-1.168.514-1.267 1.89-2.189 4.076-3.27 6.084-.429.795-.876 1.602-1.174 2.46-.352 1.013-.29 2.068-.544 3.097-.225.909-.511 1.765-.747 2.63-.294-.492-.58-.989-.822-1.512-.62-1.35-1.122-2.758-1.879-4.041-.779-1.321-1.858-2.476-2.944-3.543-1.047-1.03-2.178-1.97-3.347-2.857-1.199-.911-2.313-1.938-3.854-1.15-.32.165-.619.379-.912.587-.016.012-.021.015-.035.026-.098.061-.2.116-.29.189-.138.101-.269.214-.4.329-.05-.199-.096-.398-.16-.595-.146-.452-.514-.34-.894-.245-.702.177-1.785.729-1.976 1.482-.284.417-.458.76-.377 1.342.082.608.194 1.194.228 1.811.072 1.291.021 2.584-.005 3.877-.054 2.847.12 5.721.306 8.561.157 2.423.548 4.824.704 7.247.078 1.196.112 2.405.047 3.602-.06 1.116-.375 2.161-.492 3.26-.072.703 1.664-.609 1.781-.784 2.781-4.134 1.858-9.689 1.713-14.376-.088-2.843-.319-5.675-.448-8.516-.065-1.413-.001-2.844-.082-4.257.248.15.51.301.77.496.859.646 1.7 1.314 2.507 2.026 1.668 1.469 3.349 3.144 4.418 5.119 1.028 1.901 1.666 3.969 2.786 5.827.56.93 1.153 1.825 1.447 2.88.265.947.444 1.903 1.137 2.639.941 1.003 3.433-1.536 3.808-2.295zm-41.8979-23.635c.7396-.778 1.9511-1.626 3.0662-1.626 1.1297 0 .3593 1.176-.0397 1.595-.7391.78-1.9518 1.627-3.0663 1.627-1.1294 0-.3599-1.176.0398-1.596zm16.4329 22.064c.115 1.76-2.375 3.019-3.705 3.587-1.446.618-3.085 1.04-4.644 1.219-2.823.325-6.313-.191-8.2257-2.531-1.6528-2.023-1.5887-4.919-1.4265-7.385.1125-1.701.1778-3.428.3866-5.12.0584-.476.1678-.945.1971-1.423.0099-.16-.0777-.516-.1188-.778-.1379.116-.2753.234-.4114.352-.4513.39-.9038.774-1.4005 1.104-1.0772.715-1.9238 1-2.3757 2.285-.1112.317-.9864 1.007-1.3165.692-.8721-.829.6247-2.228 1.2295-2.725.4786-.394 1.025-.705 1.498-1.101.4656-.391.8547-.889 1.2923-1.311 1.1555-1.115 5.8168-4.247 5.7055-.668-.087 2.817-.491 5.631-.3978 8.462.0945 2.872 1.0019 5.378 3.8809 6.423 1.496.541 3.188.685 4.756.415.637-.109 1.266-.301 1.89-.473-.014.004.252-.075.46-.138.744-.644 2.66-1.908 2.726-.886zm-25.4404-19.238c.9585 1.307-.9211 3.822-1.5608 4.993-1.1449 2.092-1.6907 4.418-2.4328 6.672-.6477 1.961-1.7336 3.713-2.2713 5.706-.432 1.606-.9169 3.161-1.7181 4.622-1.0474 1.913-5.1554 6.528-7.0382 3.206-1.112-1.961-1.8082-4.266-2.4975-6.403-.7254-2.252-1.3613-4.532-2.0724-6.788-.6483-2.053-1.4303-4.041-2.4652-5.932-.5159-.943-1.071-1.872-1.6516-2.777-.514-.801-1.25-1.541-1.245-2.529.0037-.832 1.7218-1.832 2.454-1.63 1.0082.279 1.636 1.295 2.2694 2.092.6278.792 1.2152 1.608 1.7473 2.469 1.1002 1.778 1.8834 3.646 2.5305 5.632 1.2369 3.796 2.252 7.674 3.8153 11.355.2548.6.5756 1.178.8746 1.759.2417-.542.4487-1.099.6271-1.651.5452-1.688.9044-3.315 1.6976-4.914.8584-1.733 1.324-3.619 1.9027-5.457.5165-1.641 1.1586-3.147 1.9928-4.644.7316-1.313 1.1654-2.607 1.6671-4.005.2424-.681 2.684-2.72 3.3745-1.776zm-35.0251 19.13c.0224-.087.0827-.173.156-.258-.0777.15-.174.33-.156.258zm4.1379-12.865c-.7527-.674-2.8201.888-2.8954 1.717-.0938 1.043.6446 1.661.7435 2.652.092.921-.1834 1.915-.2754 2.828-.1622 1.615-.5433 3.172-1.2059 4.647-.4015.006-.8087.024-1.1891-.004-1.585-.117-3.2732-.308-4.5375-1.381-2.459-2.087-2.3652-5.983-1.0424-8.684.1156-.236.2884-.461.4313-.688.0485-.007.097-.018.1455-.024.6396.056 1.2363-.034 1.8809.101.6253.131 1.2767.331 1.8418.637.6452.347.8764.861 1.3445 1.365.2828.306.9895-.359 1.1145-.586 1.5589-2.817-3.2087-4.218-5.153-3.787-3.778.84-6.1189 4.802-6.4608 8.447-.3481 3.72 1.5882 6.804 5.3413 7.449 3.5319.608 7.2626.476 9.501-2.818 1.0865-1.601 1.6901-3.721 1.9288-5.62.1467-1.171.3101-2.497.1249-3.668-.1753-1.111-.8267-1.855-1.6385-2.583zm-20.7915 21.325c1.2153 1.487 2.0146 2.778 1.5745 4.741-.1212.54-1.948 1.406-2.2899.785-.8907-1.615-2.6225-2.811-3.911-4.088-1.3047-1.294-1.9748-2.823-2.758-4.464-.9417-1.976-1.6149-3.904-2.1327-6.031-.2542-1.042-.5078-2.111-.9889-3.074-.3848-.774-.9032-1.475-.9467-2.367-.0447-.91 1.232-1.512 1.9412-1.783-.7577.289-.174.052.1275-.278.2007-.219.3829-.461.5656-.696.3897-.498.7546-1.019 1.158-1.509.9075-1.105 1.8101-2.059 2.3011-3.436.6471-1.817 1.4434-4.111 1.3663-6.066-.0317-.821-.3195-1.752-1.1232-2.123-1.0915-.503-2.8786.402-3.9477.684-1.3918.369-2.9911.645-4.2318 1.417-.8876.551-1.4172 1.463-1.6783 2.453.7192-.133 1.2892-.064 1.1972.354-.5227 2.385-.6775 4.613-.5408 7.049.1287 2.298-.0074 4.577-.087 6.873-.0796 2.268.1604 4.558-.0062 6.821-.087 1.175-.1548 2.246-.0653 3.427.0715.94-.0118 1.748-.3456 2.634-.3207.855-3.7363 2.145-3.5654 1.015.151-.997.1268-1.885.0361-2.885-.0964-1.049.0304-2.053.0969-3.098.1436-2.257-.1199-4.538-.0652-6.801.0602-2.459.1883-4.894.0472-7.353-.1305-2.297.1461-4.417.7782-6.624.0752-.264.3574-.525.7347-.752-.1647-.933.0013-1.771.7665-2.622 1.0884-1.21 2.679-1.946 4.1602-2.535 1.6491-.656 3.3622-1.106 5.0504-1.645 1.5316-.488 3.2776-.993 4.8795-.542 2.2197.623 2.3577 2.803 2.0226 4.781-.3934 2.335-1.0038 4.977-2.4323 6.893-1.3246 1.776-2.6796 3.745-4.4561 5.11.2001.674.6129 1.264.9255 1.903.4799.981.7341 2.079.9983 3.135.5215 2.098 1.2376 4.044 2.1314 6.011.7839 1.724 1.5142 3.22 2.7132 4.686zm307.5771-10.159c.428-.22.26-.081 0 0zm-7.876-2.136c-.555-1.17.152-2.7.418-3.867.305-1.332.424-2.702 1.326-3.801.09-.11.217-.211.308-.324.17.07.917-.133 1.116-.143.961-.054 1.926-.02 2.889-.075.126-.006.252-.044.378-.073.153.548.427 1.084.613 1.627.535 1.569.184 3.547-.059 5.155-.189 1.245-.521 2.485-.937 3.681-.66-.002-1.325-.014-1.975-.108-1.305-.186-3.46-.771-4.077-2.072zm14.405-13.62c-.028-.601-1.002-.077-1.667.439-.801.206-1.577.466-2.4.649-1.155.257-2.568.982-3.385 2.005-1.313-.122-2.592-.175-3.899.277-1.862.644-3.521 2.045-4.634 3.672-.878 1.281-1.295 2.794-1.731 4.271-.417 1.414-1.156 3.138-.655 4.617.55 1.618 2.797 2.372 4.304 2.646 1.622.292 3.533.421 5.159.079 1.819-.382 3.301-1.831 4.023-3.507.712-1.656 1.221-3.835 1.295-5.629.047-1.124.011-2.345-.172-3.456-.125-.769-.491-1.416-.808-2.114-.105-.234-.148-.59-.225-.863.043-.016.094-.034.132-.047.945-.329 1.769-.753 2.745-1.007.589-.152 1.944-.812 1.932-1.579 0-.151-.005-.302-.014-.453zm-22.593-2.535c-.298.958.128 1.879.023 2.853-.218 2.027-1.218 3.879-1.22 5.954-.001.797.178 1.583.207 2.38.03.768-.197 1.341-.435 2.049-.632 1.874.266 3.985.104 5.898-.105 1.243-2.394 2.588-3.524 2.342-1.64-.357-2.525-2.555-2.98-3.923-.72-2.167-2.479-3.714-3.676-5.599-1.107-1.741-1.995-3.569-3.29-5.193-.398-.5-.812-.953-1.234-1.388.112.383.224.766.295 1.158.3 1.667.087 3.415.043 5.095-.098 3.718.115 7.427.27 11.139.145 1.293-3.561 2.785-3.524 1.846.165-4.098.166-8.2.33-12.295.077-1.904.101-3.651-.395-5.501-.228-.851-.317-1.657-.304-2.538.009-.546.028-.934.131-1.282-.03 0-.052.008-.083.006.004-.102.054-.21.113-.317-.743-.69 1.796-2.239 2.436-2.158 4.381.557 6.872 4.326 8.875 7.888 1.081 1.921 2.824 3.457 3.798 5.437.161-.388.297-.769.325-1.237.057-.891-.069-1.781-.028-2.673.095-2.016 1.061-3.819 1.298-5.795.11-.918-.208-1.802.05-2.717.234-.829.666-1.439.727-2.327.044-.643 2.054-1.75 2.076-1.088.025.758-.189 1.284-.408 1.986zm-34.943 13.396c.06-.027-.131.097-.183.118.035-.013.072-.027.108-.041-.7.637-.446.165.075-.077zm-7.074-13.078c.029-.047.062-.101.048-.117.034.04.007.079-.048.117zm13.015 11.363c.317-.249.598-.518.853-.806.675-.415 1.321-.988 1.513-1.609.314-1.023-.831-.78-1.432-.576-.892.304-1.789.859-2.457 1.54-.681.115-1.593.606-2.092.866-.195.1-.356.199-.507.291-.195-.018-.388-.043-.586-.051-1.109-.038-2.232.608-3.05 1.314-.299.259-1.48 1.326-.719 1.707 1.784.895 3.392-.564 5.001-1.126.139-.049.277-.093.415-.138.111.009.225.017.335.026 1.388.113 2.454.572 2.605 2.136.164 1.726-.709 3.442-1.452 4.938-.316.635-.641 1.266-.955 1.902.238-.069.552-.062.968.103-.245-.098-.621-.1-.971-.095-.026.051-.052.102-.077.153-.097.197-.214.392-.301.591-.31.71-.442-.483.353-.744-.2.003-.391.007-.54-.004-1.984-.134-4.376.571-6.247-.228-1.856-.795-3.283-2.925-3.787-4.835-.583-2.22-.349-4.697-.342-6.969.005-2.347-.173-4.715-.105-7.059.013-.451.051-.903.129-1.348.053-.303.243-.655.34-.975.434-.01.873-.039 1.303-.061.581-.03 1.105-.058 1.668-.189.705-.164 1.026-.101 1.671.251.441.24.854.436 1.321.621.102.04.337.017.42.083.276.217.315.604.472.9.039.046.09.066.152.059.205-.001.408-.002.613-.003.166-.002.972-.446.69-.636-.356-.237-.338-.77-.401-1.169.002-.066-.027-.113-.09-.136-.602-.101-1.087-.351-1.604-.671-.28-.174-1.4-.612-1.434-.948.005-.136-.056-.228-.181-.277-1.007-.216-1.931-.493-2.977-.41-1.399.111-2.682.856-3.72 1.771-1.66 1.464-2.313 3.583-2.406 5.749-.132 3.087-.104 6.183-.109 9.272-.003 2.677.149 5.364 1.803 7.586.681.914 1.549 1.771 2.561 2.303 1.21.636 2.661.586 3.987.533 2.694-.109 5.472.387 7.822-1.24 1.873-1.297 2.561-3.434 3.326-5.484.594-1.594 1.262-3.818.537-5.473-.397-.904-1.321-1.273-2.316-1.435zm-2.531 10.422c-.009 0-.017 0-.025 0 .009-.003.019-.005.028-.008-.001.003-.002.005-.003.008zm-20.447-.429c-1.622.919-3.001 2.176-4.705 2.958-.037.017-.48.287-.462.226-.346.344-.605.778-.986 1.105-.75.647-1.621 1.114-2.555 1.427-1.567.525-3.644.559-5.087-.376-1.355-.882-1.309-2.373-1.228-3.822.11-2.007-.179-4.035.187-6.025.246-1.343.623-2.652.695-4.024.03-.613.044-1.301-.202-1.876-.03-.068-.411-.566-.583-.743-.143.103-.287.206-.43.309-.93.651-1.915 1.511-2.967 2.033-.032.04-.075.07-.104.114-.097.136-1.155.945-1.186.459 0-.129-.02-.257-.061-.38-.102-.209.036-.48.162-.641.983-1.255 2.399-2.283 3.649-3.26 1.273-.997 4.043-2.84 5.393-1.019.793 1.07.621 2.749.442 3.984-.239 1.656-.71 3.222-.733 4.91-.014 1.098.079 2.194.052 3.291-.021.78-.18 1.621-.029 2.395.335 1.722 2.016 1.68 3.387 1.839.3-.267.613-.521.944-.747.818-.558 1.698-.821 2.589-1.208 1.586-.686 2.797-2.019 4.582-2.235.864-.106-.577 1.201-.764 1.306zm-23.393-19.31c-.363 1.756-.978 3.424-1.591 5.105-.61 1.678-1.499 3.287-1.891 5.028-.412 1.831-1.143 3.592-1.495 5.433-.16.838-.167 1.721-.46 2.529-.263.732-.767 1.335-1.135 2.013-.579 1.07-2.223 2.446-3.526 2.343-2.318-.184-3.336-2.099-4.399-3.927-1.306-2.244-2.445-4.557-3.716-6.823-1.127-2.01-1.751-4.253-2.855-6.272-.323-.59-.658-1.179-1.023-1.742-.215-.33-.619-1.154-.954-1.287-.726-.288.41-1.367.664-1.578.601-.499 1.56-1.133 2.378-.934 1.182.286 1.966 1.789 2.539 2.752 1.051 1.77 1.707 3.733 2.65 5.558 1.254 2.424 2.589 4.883 4.077 7.165.637.977 1.188 2.093 1.98 2.911.152-.578.278-1.165.48-1.725.659-1.817 1.554-3.508 2.103-5.371.512-1.743 1.593-3.195 2.273-4.867.68-1.671 1.32-3.395 1.706-5.161.116-.528.676-.926 1.126-1.154.128-.066 1.172-.494 1.069.004zm-32.944 17.258c-.021.029-.044.059-.068.091-.083.005-.167.008-.25.012.08-.061.198-.091.318-.103zm1.046-2.312c-.111.771-.492 1.538-.938 2.167.004-.005-.045.062-.108.145.312-.031.601.06.058.086-.041.002-.084.003-.126.005-.131.173-.286.37-.299.345-.082-.161-.042-.264.049-.333-1.336.068-2.682.131-3.941-.434-2.41-1.078-1.899-3.962-1.056-5.95.219-.517.467-1.023.745-1.509.178-.312.51-.702.773-1.083.099.036.193.076.3.105-.718.543-1.495 1.327-.611 1.454.792.114 1.498-.274 2.265-.301.741-.027 1.286.503 1.671 1.079.764 1.148 1.421 2.816 1.218 4.224zm.048-8.078c-.02-.1-.079-.188-.185-.253-1.625-1.009-3.041-1.448-4.853-.515-1.81.933-3.037 2.491-4.075 4.202-1.27 2.09-2.677 5.003-1.785 7.49 1.035 2.886 5.275 2.972 7.746 2.494 3.329-.643 7.13-4.234 7.18-7.853.021-1.584-.747-3.669-1.907-4.749-.658-.611-1.378-.823-2.121-.816zm-12.122 19.711c.558 1.702-2.336 3.023-3.621 3.259-1.562.287-3.163-.122-4.665-.531-1.537-.417-2.689-.97-3.487-2.438-.99-1.821-1.683-3.8-2.684-5.625-.868-1.58-1.963-3.029-2.763-4.649-1.002-2.033.567-3.52 2.302-4.482.978-.541 2.008-.881 3.11-1.044.525-.077 1.053-.122 1.579-.187.035-.004.112-.02.205-.041v-.08c-.025-.511-.035-1.019-.029-1.532.012-1.156.169-2.406-.097-3.544-.457-1.948-2.189-3.786-4.2-4.734-.12.595-.251 1.187-.405 1.775-.326 1.244-.998 2.201-1.538 3.345-.658 1.396-.631 3.104-.872 4.614-.497 3.113-1.071 6.161-1.419 9.297-.153 1.385-.589 2.706-.612 4.11-.024 1.528.317 3.325-.447 4.7-.275.493-1.693 1.864-2.339 1.392-1.01-.739-.584-2.94-.585-4.112-.001-1.418.404-2.737.579-4.132.194-1.54.281-3.077.54-4.611.262-1.553.6-3.092.853-4.646.251-1.541.264-3.225.772-4.708.409-1.198 1.257-2.175 1.649-3.382.448-1.379.684-2.865.878-4.3-.233.009-.464.03-.691.073-.695.131-.972-.136-.685-.757.25-.548.897-1.055 1.512-1.374.041-.773.118-1.536.391-2.207.262-.643 1.042-1.143 1.643-1.411.155-.069 1.166-.447 1.239-.015.327.546.176 1.288.136 1.909-.021.35-.069.697-.103 1.045 2.891.001 5.701 1.435 7.178 4.136.964 1.761.766 3.671.735 5.608-.013.822.172 1.756-.086 2.552-.275.855-.994 1.51-1.675 2.047-1.837 1.448-3.847 1.795-6.088 2.059.085.682.417 1.282.772 1.865 1 1.649 2.016 3.254 2.857 4.997.433.896.794 1.794 1.1 2.74.232.717.447 1.455.908 2.061.806 1.065 2.262 1.331 3.496 1.605.688.151 1.386.268 2.088.303-.063.18-.117.408-.156.701.009-.063.206-.297.228-.338.035-.066.168-.208.339-.371.13-.009.259-.016.382-.003.282.03.246-.225.081-.403.667-.535 1.528-1.048 1.695-.536zm-2.52.955c-.016-.001-.033-.004-.049-.005.257-.736.667-.637.874-.414-.178.142-.33.279-.463.406-.122.008-.244.018-.362.013zm58.842-30.442c.003-.005.005-.011.007-.016.038-.068.085-.13.119-.199-.042.072-.084.143-.126.215zm-3.631 2.136c.14.119.286.22.449.303.082.012.164.025.247.036.173-.004.341-.037.502-.099.356-.111.706-.281 1.013-.493.257-.178.503-.373.724-.595.172-.174.283-.357.371-.558.229-.194.44-.406.6-.651.175-.269.374-.573.227-.903-.065-.148-.246-.236-.374-.32-.237-.064-.475-.061-.713.007-.253.058-.495.144-.725.262-.624.286-1.236.677-1.706 1.186-.312.34-.856.914-.773 1.439.006.149.042.289.158.386zm-217.2241-27.443c-1.1133 1.32-3.0893 2.636-4.8689 2.893-2.3446.34-4.793.65-7.4286.986-2.8257.36-5.7235.762-8.5903.633-2.3869-.108-4.6917-.764-6.2942-2.651-1.6982-2.001-1.9847-4.887-2.0139-7.359-.0435-3.673-.0292-7.443.2716-11.099.3077-3.739 1.0319-7.431 1.567-11.139.5477-3.787 1.3197-10.623 1.4216-14.448.1001-3.752.2984-7.492.8584-11.198.2785-1.8427.6241-3.69.6023-5.566-.0155-1.3668-.2188-2.6088.4103-3.8662.3661-.7329 1.2046-1.2948 1.9586-1.5957.1436-.0571 1.6752-.565 1.4906.1349-.3929 1.4856.3953 3.1322.4214 4.6526.0311 1.8368-.189 3.6506-.3363 5.4737-.312 3.8687-.1666 7.7897-.0168 11.6717.2748 7.115.5079 5.672-.2262 12.753-.3531 3.4-.8497 6.791-.9287 10.218-.0795 3.413-.046 6.89.0796 10.305.0901 2.445.4699 5.298 2.5516 6.996 1.6335 1.334 3.7308 1.308 5.7124 1.229 2.3794-.095 4.7346-.427 7.0861-.751 1.9735-.272 4.0359-.729 6.0412-.624 1.7193.09.8795 1.581.2312 2.351zm6.0667-70.576c-2.0009 3.3746-1.7454 6.7647-1.9474 10.5713-.1113 2.0873-.5831 3.8632-1.2985 5.8199-.6912 1.8898.0304 3.8008-1.311 5.4728-.077.097-.1759.208-.2834.324-.3885.434-.8367.847-1.3321 1.216-1.3992 1.108-3.2664 2.13-4.4704 1.469l.1305-.065c-.5992-.26-.7366-.917-.0789-1.728.197-.243.1603-2.013.3058-2.568.2971-1.126.8317-2.141 1.2861-3.205.7962-1.8599.8814-3.8658 1.1629-5.8499.5812-4.0938 1.3936-8.2945 4.6619-11.1233.5707-.4935 1.6149-1.1058 2.4217-1.1114.4687-.0037 1.1114.1728.7528.7776zm34.3321 34.443c-2.8774-.214-5.7503-.586-8.6258-.86-1.3265-.127-2.6852-.139-4.0061-.337-.2151-.033-.5333-.084-.8901-.147 1.9673-4.335 3.4659-8.811 5.2897-13.239.9324-2.264 1.9306-4.4844 2.8127-6.7669 1.4246 3.8469 2.8785 7.6759 4.1024 11.5909 1.0113 3.236 1.6982 6.534 2.4826 9.818-.3885-.018-.7769-.029-1.1654-.059zm65.4073-5.07-.098-2.086-1.531 1.375c-.268.241-.525.469-.774.691-.645.572-1.253 1.112-1.836 1.685-.491.482-.638 1.189-.678 1.472-.567 3.942-1.754 8.03-3.736 12.866-1.402 3.416-2.54 6.77-3.385 9.971-.969 3.669-1.811 7.437-2.624 11.083-.145.653-.291 1.308-.437 1.963-1.606-5.621-4.106-10.773-6.943-16.372-2.511-4.959-5.293-10.39-8.751-17.095-.398-.773-.84-1.496-1.307-2.262-.217-.356-.44-.72-.667-1.103l-.768-1.3-.86 1.207c-.308.431-.578.831-.829 1.203-.491.733-.879 1.312-1.333 1.784-1.343 1.407-.874 2.795-.316 3.848 1.028 1.939 2.06 3.92 3.06 5.836 2.068 3.972 4.207 8.079 6.433 12.041l.187.328c1.238 2.203 2.442 4.348 3.528 6.535-1.041.41-2.004 1.168-2.76 1.865-2.058 1.903-4.054 3.891-6.179 5.716-2.12 1.82-3.558 3.094-5.879 3.843-2.022.652-5.525 1.014-6.647-1.337-1.455-3.052-2.326-6.616-3.283-9.847-2.1919-7.414-3.6439-14.999-5.7188-22.439-.381-1.367-.7807-2.73-1.1791-4.092.11-.066.2343-.114.3419-.183.7409-.477 2.3415-1.589 2.3608-2.627.018-.966-2.0761-.567-3.5711-.2-.3325-1.17-.6582-2.343-.9572-3.522-.9349-3.677-1.7491-7.331-2.9619-10.938-1.3488-4.0028-3.2937-7.7795-4.6507-11.7614-.7185-2.1066-.5495-4.8583-3.2316-5.2997-1.8262-.2996-4.8204 1.9325-5.4836 3.5356-1.1183 2.707-1.9587 5.5098-2.873 8.2957-.9218 2.8128-2.147 5.4798-3.2242 8.2288-1.0753 2.741-1.9275 5.557-2.9308 8.324-.123.339-.2635.671-.3959 1.006-.9454-.18-2.6933 1.462-2.8338 2.087-.0572.255-.1138.509-.1722.763-.0068.182.0752.308.2437.377.3611.227.7148.425 1.0672.612-.4133.862-.8335 1.721-1.2537 2.579-2.5547 5.217-4.606 10.637-6.4564 16.154-1.6771 5-4.0236 10.211-3.3703 15.629.1579 1.31 3.6742-.81 3.7519-1.891.4084-5.657 2.9072-10.981 4.8807-16.198 1.9064-5.041 3.9328-10.021 6.2961-14.852.5352.125 1.0884.235 1.6733.333 2.7281.455 5.4494.988 8.1807 1.414 2.3819.372 5.1163.551 7.799.344.8205 3.005 1.6808 6 2.4491 9.019 2.0804 8.165 3.709 16.408 6.3408 24.437.9094 2.772 1.4004 6.53 4.5463 7.586 3.0698 1.031 6.9418.156 9.8188-.967 7.026-2.743 12.522-8.01 17.364-13.638.672 1.515 1.28 3.063 1.786 4.682.361 1.157.773 2.3 1.171 3.409.31.857.629 1.745.918 2.621.319.969 1.022 1.557 1.878 1.574.42.009.849-.133 1.202-.401l.149-.112c.94-.703 2.108-1.578 2.532-2.831l.548-1.632c1.563-4.617 3.176-9.389 4.293-14.253 1.043-4.548 2.557-10.491 5.026-16.129 1.296-2.958 2.682-6.524 3.144-10.538.072-.627.015-1.244-.035-1.789-.018-.215-.039-.424-.049-.627zm171.538-2.467c-1.805-.507-3.731-.756-5.594-.836-3.238-.142-6.486.246-9.687.714.034 1.661.094 3.324.209 4.991.687 9.97 2.37 19.831 4.022 29.692.463 2.774.144 5.575.286 8.367.072 1.407.167 2.863.626 4.212.343 1.004 1.098 1.643 1.61 2.32 1.07 1.413-3.072 2.226-3.856 2.242-1.958.041-3.367-.571-4.217-2.408-.696-1.503-.847-3.276-.901-4.899-.11-3.275.135-6.368-.358-9.632-.799-5.282-1.608-10.565-2.236-15.87-.618-5.222-1.041-10.452-1.07-15.704-.004-.803.018-1.606.031-2.409-2.873.456-5.75.9-8.651 1.164-2.196.201-4.4.345-6.608.289-2.042-.052-4.32-.043-6.272-.777-1.087-.409-.52-1.256.127-1.744 1.06-.797 2.849-1.296 4.163-1.237 3.659.167 7.159.517 10.821.156 2.182-.216 4.349-.522 6.513-.846.04-.877.073-1.756.138-2.631.09-1.251.185-2.508.343-3.751.081-.639.122-1.401.309-2.0166.22-.7241.741-.9827 1.373-1.3849.574-.3661 1.912-.9087 2.623-.5687.044.0205.07.041.106.0621.016-.0093.033-.0192.049-.0286.216.0721.432.1436.651.2139.235.0602.398.2001.491.4201-.21 2.9437-.33 5.8827-.347 8.8237 6.856-.994 14.45-1.879 21.044.909.385.162.638.369.53.81-.325.338-.653.678-.982 1.018-1.304 1.125-3.776.764-5.286.339zm-55.067 8.411c.003.001.007.001.01.002-.025.036-.095.128-.224.29.012-.019.025-.037.037-.057.059-.078.119-.155.177-.235zm16.383 35.333c.238-.138.125-.066 0 0zm-23.935-23.228c.061-.189.105-.308.119-.304.036.011-.031.149-.119.304zm-2.577-.932c.052-.091.045-.077 0 0zm-56.447-6.344c.045-.019.089-.039.133-.059-.007.021-.015.042-.023.063-.037-.001-.073-.002-.11-.004zm8.832-7.275c1.017-1.846 2.145-3.692 3.453-5.201.261-.302.53-.596.81-.879.116-.117.235-.231.355-.346.019-.015.028-.02.053-.04.017-.014.043-.031.066-.047.043.007.061.005.056-.003.017.009.026.014.051.026.877.41 1.04.56 1.514 1.36 1.032 1.745 1.02 3.629.575 5.567-.309 1.35-.718 2.226-1.572 3.471-.034.049-.07.097-.105.145-.02.014-.296.358-.345.412-.098.104-.435.447-.552.573-.136.107-.592.493-.719.599-.007.006-.017.012-.025.019-.147.095-.292.193-.444.28-.027.015-.032.019-.052.031-.192.086-.379.184-.57.273-.002.001-.002.001-.005.002-.031.01-.047.015-.093.031-.229.078-.455.162-.685.237.514-.166-.806.2-1.029.248-.479.101-.939.174-1.335.227-.793.105-1.595.157-2.398.19.686-2.498 1.741-4.9 2.996-7.175zm4.984-6.721h.004c-.023.011-.038.018-.065.032h-.002c.028-.013.039-.02.063-.032zm-.531.147c.006-.001.01-.001.016-.003-.006.002-.01.002-.016.003zm-.021.005c-.009.002-.014.004-.022.006.011-.002.012-.003.022-.006zm-.823 12.23c-.158.121-.45.288 0 0zm-27.804-6.124c-.001 0-.002.001-.003.002 0-.001.002-.003.002-.004-.001.002.001 0 .001.002zm108.888 23.406c-1.065.284-2.034 1.751-2.465 2.58-1.366 2.627-2.766 5.224-4.355 7.757-.275.436-.557.87-.847 1.299-.123.182-.249.364-.376.546-.072.096-.261.354-.29.39-.255.328-.521.647-.774.975-.014.019-.016.023-.028.039-.013.014-.016.016-.032.032-.144.153-.292.306-.436.461-.046.05-.156.151-.233.221-.066.057-.134.111-.196.171-.047.046-.074.074-.101.101-.033.017-.081.045-.159.094-.102.063-.204.125-.306.186-.031.015-.061.03-.082.038-.118.045-.561.177-.54.19-.852.151-1.267.046-1.979-.427-1.823-1.212-2.577-3.679-3.185-5.695-.957-3.173-1.463-6.485-1.857-9.786-.419-3.525-.652-7.078-.819-10.638-.164-3.463.046-7.071-.643-10.448-.552-2.692-1.814-7.269-5.824-4.703-3.867 2.475-6.133 7.094-8.112 10.792-1.077 2.012-2.091 4.047-3.19 6.051-.095.174-.193.348-.291.522-.031.053-.065.112-.108.183-.234.384-.474.764-.717 1.145-.625.985-1.056 2.031-1.409 3.098-1.271-6.464-2.779-12.907-2.738-19.564.002-.333-.097-.936-.656-.845-3.851.633-6.294 5.408-7.549 8.36-.321.755-.627 1.514-.926 2.276-.033.084-.056.144-.074.19.006-.02 0-.007-.05.111-.141.338-.267.683-.423 1.015-.808 1.719-2.136 3.266-3.364 4.769-.27.332-.841 1.1-1.07 1.776-1.455 1.969-2.91 3.971-4.544 5.781-.811.898-1.581 1.653-2.387 2.333-.427.36-.868.704-1.305 1.051-.064.051-.246.184-.34.254-.258.175-.517.346-.78.512-.224.139-.454.269-.677.409-.021.013-.026.016-.044.027-.01.005-.009.004-.02.009-.448.227-.898.444-1.355.65-.017.006-.022.007-.042.014-.28.091-.553.205-.831.301-.186.062-.373.119-.556.185-.059.02-.087.031-.12.044-.054.011-.127.026-.235.051-1.597.366-3.155.601-4.858.493-7.48-.481-13.601-6.037-14.175-13.721-.113-1.519-.031-3.011.178-4.476 2.132-.095 4.252-.55 6.232-1.309 3.819-1.461 7.511-4.013 9.383-7.767 1.911-3.827 2.234-11.652-3.935-11.363-4.18.194-7.957 3.225-10.451 6.351-1.99 2.493-3.773 5.321-5.158 8.322-4.339 1.31-9.213 1.705-13.53-.347.856-2.432 1.563-4.926 1.865-7.432.171-1.427-3.068-.527-3.581-.383-3.252.915-7.907 2.695-8.824 5.847-.567 1.947.883 3.636 2.651 4.826-.318.98-.657 1.957-1.041 2.927-1.452 3.669-3.233 7.23-5.13 10.73-1.994 3.677-4.209 7.265-6.349 10.882-1.951-8.275-5.258-20.203-6.695-32.128-.051-.413-3.576 1.211-3.576 1.211-.814 3.049 5.409 33.462 5.023 40.636-.057 1.11 2.152.607 2.724.452 1.407-.382 3.061-1.101 3.812-2.228 4.519-6.788 8.783-13.749 12.617-20.867 1.638-3.04 3.141-6.133 4.474-9.289 3.848.719 8.02.232 11.704-.952-.098.128-.107.24.051.306.564.24.947.591 1.451.867.129.071.281.126.442.172-.255.945-.479 1.896-.631 2.853-.72 4.52-.147 9.49 2.592 13.335 2.536 3.564 6.413 5.72 10.621 6.499 6.077 1.125 12.341-.672 17.577-3.606 5.376-3.014 11.356-8.354 12.465-14.746.018-.103.003-.184-.03-.249 1.85-2.134 3.451-4.412 4.445-6.687 1.005 12.213 6.184 23.9 3.873 36.434-.278 1.507 1.759.365 2.29-.075 1.273-1.057 2.337-2.538 2.625-4.053 1.287-6.763 1.205-13.587 2.608-20.34.058-.281.826-3.195 1.165-4.289.052-.079.103-.158.153-.236.256-.404.496-.813.734-1.223 1.092-1.888 2.083-3.814 3.086-5.736.48-.916.961-1.832 1.457-2.743.083-.151.444-.792.49-.88.23-.396.46-.79.701-1.181.242-.393.506-.774.752-1.163-.033.042-.062.077-.104.13.049-.06.093-.124.141-.186.003-.007.008-.013.011-.019.049-.077.126-.173.166-.216.001-.001.002-.002.003-.003.021-.023.027-.026.007.004.048.007.096.024.172.056.599.249.872.706 1.136 1.217.903 1.745 1.42 3.946 1.48 5.914.206 6.83.612 13.671 1.692 20.377.495 3.083 1.108 6.193 2.258 9.096.69 1.747 1.714 4.051 3.675 4.881 2.838 1.204 5.902-1.457 7.73-3.336 4.211-4.332 6.994-9.846 9.308-15.081.27-.608.588-1.684-.512-1.391zm39.836 6.744c-.844.315-1.721.582-2.608.666-.176.017-.269.032-.317.045-.01-.011-.03-.026-.083-.046-.454-.174-.848-.534-1.198-.856-2.168-2.002-3.386-5.448-3.044-8.495.297-2.636 1.656-5.062 3.801-6.712 1.027-.792 2.221-1.44 3.392-1.961.284-.126.632-.221.899-.378.003-.002.154-.082.318-.175.198.136.437.25.627.377 3.352 2.247 5.985 5.47 8.605 8.6-.053.242-.117.484-.201.728-1.367 3.957-6.534 6.838-10.191 8.207zm.971-18.041c-.46.103-.368-.295 0 0zm16.269 11.837c-.322-.373-.643-.757-.961-1.146.58-1.396.882-2.756.663-3.859-.745-3.768-3.849-7.937-7.153-9.658-.429-.224-4.566-1.276-4.419-.001.146 1.273 1.122 2.032 1.854 3.014.243.326.472.664.707.998-1.053-.883-2.172-1.663-3.392-2.279-5.733-2.894-14.367.777-17.065 6.964-3.209 7.365 2.452 14.426 9.381 15.442 5.937.869 10.249.328 14.769-3.891 1.136-1.06 2.531-2.798 3.619-4.665 1.348.087 2.648-.168 1.997-.919zm-299.8003-94.1707c-3.098-1.2133-6.3209-1.769-9.4935-2.4683.8385-3.397 1.7504-6.9375 2.9811-10.1281.5707-1.48 1.232-2.8662 1.5329-4.4848.3077-1.6422.3555-3.3696.6595-5.0137.5407-2.9258 1.5583-5.7329 2.5379-8.5257.1237 1.3402.3263 2.6797.6707 4.128.6837 2.8711 1.053 5.6284 1.2537 8.4927.3991 5.6508 1.7666 11.3241 2.4447 16.996.097.8081.2207 1.6205.3506 2.4342-.9541-.5203-1.9524-1.0437-2.9376-1.4303zm14.754 31.9887c-.3009-1.2979-.4463-2.5976-.6732-3.8973-.4382-2.4957-1.2525-4.9709-1.6025-7.4703-.3804-2.7101-1.0983-5.5414-1.1654-8.226-.0684-2.7363-.4588-5.4085-.9069-8.1689-.4569-2.8214-.7267-5.6409-1.1835-8.4635-.4675-2.8954-1.2047-5.7914-1.5838-8.6849-.3593-2.7343-.483-5.4618-1.0518-8.2018-.5737-2.766-1.6801-5.5141-1.7796-8.2833-.0913-2.4558-.3201-4.711-.8267-7.18052-.261-1.27549-.5047-2.55099-.5805-3.82338-.0541-.91062.1305-1.86413-.0827-2.77849.0435-.64956-1.4054-1.51107-1.7914-1.719927-1.0275-.551969-2.5479-1.145585-3.5356-.667585-.749.361764-.9995 1.213332-1.0374 2.173062-.1734.33442-.3525.66262-.5719.95228-.8416 1.10953-1.0772 2.14136-1.3625 3.56852-.6545 3.27824-2.4173 6.27924-3.4803 9.38094-.5383 1.5696-1.1567 3.1341-1.4999 4.7975-.3176 1.5402-.3972 3.1607-.6495 4.7234-.2474 1.5347-.754 2.8748-1.3346 4.2467-.6172 1.4607-1.0138 3.0116-1.4793 4.5525-.7584 2.5112-1.3489 5.1473-2.1097 7.6722-2.2539-.1759-4.5121-.189-6.7436-.4289-1.6478-.1765-9.0453-2.0991-8.0458 1.1698.5053 1.6479 3.8091 2.4733 5.0491 2.3453 1.2457-.1312 1.8853-.3686 3.1801-.1852 1.6205.2287 3.2403.3375 4.8552.5003.1635.0162.3282.0255.4929.0386-1.0306 2.4838-2.2818 4.8396-2.8835 7.5535-.6943 3.1291-1.6062 6.007-3.4107 8.489-1.889 2.5982-4.2324 4.8303-6.6553 6.871-2.4596 2.0736-4.7359 3.6692-8.2764 3.5567-3.06321-.0982-6.2389-1.1785-9.13176-2.7623-.60605-.3319-2.132026-1.0175-2.698291-.588-.563779.427.102548 1.0467.662598 1.393 5.592413 3.446 12.522453 5.7596 18.391553 4.7234 3.1402-.5538 5.4351-2.7369 7.6871-4.7353 2.4534-2.1792 4.8142-4.5866 6.5491-7.4615 1.6857-2.7953 2.081-6.03 3.1489-9.1454.897-2.6106 2.132-4.9801 3.052-7.5535.3885.051.7757.1113 1.1599.1921 1.4775.3095 2.9469.7645 4.4257 1.0623 1.2574.2548 2.5236.3356 3.778.6632 1.0225.2679 1.9723.7459 2.9388 1.2544.4022.2107.8933.3934 1.3539.5985.1982 1.3215.3673 2.6405.4077 3.9446.0821 2.7101.5184 5.2698.9361 7.9992.4513 2.9507 1.0567 5.8131 1.6628 8.7625.5227 2.5479.5277 5.8535 2.3471 8.0378.951 1.1418 2.5783 1.8691 3.8687 2.2532.7503.2232 2.5976.7409 2.896-.2095.1423-.4506.0056-.8739-.2486-1.2587-.1523-.5227-.3357-1.0442-.4606-1.5813zm107.9023-29.0374c.048-.2026.098-.4202.153-.6558.362-1.5919 1.448-2.6218 3.631-3.4386.272-.1007.544-.2045.815-.3083 1.956-.7478 3.804-1.452 5.714-1.452.66 0 1.28.0826 1.898.2542.811.2269 1.611.9243 1.677 1.1841.08.3773-.409 1.4782-.842 1.7355-2.046 1.2189-4.288 2.2365-6.456 3.2198-.369.1678-.738.335-1.106.5029-.451.2082-.99.3325-1.56.4662-.237.0553-.48.1106-.723.1746-.118-.0174-.239-.0348-.361-.0522-.442-.0659-.897-.133-1.394-.1709-.676-.0504-1.374-.1038-1.712-.1784.032-.2822.151-.7876.266-1.2811zm29.324 13.775c-1.908.8397-3.712 1.6323-5.528 2.2986-2.812 1.03-6.515 2.2135-10.205 2.2135-2.565 0-4.912-.5452-7.179-1.6665-3.55-1.7566-5.725-4.3666-6.625-7.9582 4.3-.6004 9.992-2.5025 17.084-9.9572.816-.8546 1.432-1.8983 1.929-2.8052.855-1.5645 1.013-3.1346.446-4.4201-.4-.9069-1.34-2.0972-3.544-2.6206-1.214-.2872-2.417-.4326-3.57-.4326-1.582 0-3.131.2735-4.608.8136l-.506.1853c-3.395 1.2338-6.903 2.5093-9.129 6.1269-.772 1.2507-1.502 2.1458-2.763 2.7307-1.472.6837-2.311 2.4391-3.051 3.9893-.098.2045-.195.4072-.289.5986-.472.9591-.134 2.6846.672 3.4206.817.7434.895 1.5732.964 2.9718l.005.0827c.191 3.8246 1.318 6.9922 3.346 9.417 3.981 4.7545 9.439 5.3979 14.253 5.3997h.005c3.346 0 6.331-1.125 9.219-2.2116.678-.2561 1.379-.5215 2.07-.7633 4.185-1.4744 7.274-3.2453 9.725-5.5694.296-.2803.539-.5942.818-.9554.139-.1821.298-.386.488-.6197l-1.13-1.5266c-1.01.4289-1.97.8497-2.897 1.2581zm-45.009-31.5915c.04.5936.085 1.2668-.015 1.9455-.651 4.3785-2.338 8.2591-3.905 11.4782-2.988 6.1419-4.9 12.6325-6.231 17.5996-1.423 5.3065-3.407 10.5073-5.326 15.5385l-.68 1.7827c-.511 1.3432-1.854 2.2762-2.933 3.024l-.175.1206c-.373.2617-.795.3984-1.225.3984-.936 0-1.691-.6234-2.017-1.6683-.302-.9641-.639-1.9406-.963-2.8854-.42-1.2165-.853-2.4733-1.226-3.7401-1.575-5.3444-4.157-10.0156-6.889-14.9622l-.197-.3562c-2.413-4.3685-4.719-8.8912-6.952-13.2665-1.075-2.1097-2.188-4.2902-3.296-6.4241-.593-1.1388-1.076-2.638.464-4.1261.536-.5178.998-1.1493 1.584-1.9487.297-.4034.615-.8379.979-1.3072l.883-1.135.725 1.2438c.246.4246.488.828.725 1.2208.507.8429.986 1.6385 1.414 2.4851 3.728 7.3882 6.724 13.3697 9.425 18.8235 3.137 6.3327 5.882 12.1408 7.52 18.5065.229-.8758.46-1.7529.688-2.6305 1.042-3.9825 2.117-8.1012 3.335-12.1079 1.061-3.4865 2.462-7.1414 4.162-10.8641 2.411-5.2736 3.891-9.739 4.661-14.0504.043-.2355.223-1.0417.793-1.5589.68-.6185 1.388-1.2015 2.138-1.8175.291-.2387.591-.4861.904-.7459l1.551-1.2929.044 2.0282c.003.2238.02.4556.035.6925zm-49.453 18.3268c.354 2.0755.558 4.7757-1.024 7.2676-.67 1.0542-1.389 2.0923-2.082 3.0961-.808 1.1686-1.643 2.3764-2.39 3.5965-2.5067 4.0882-6.0678 7.1135-9.512 10.0405-.4743.4028-.9486.8044-1.4197 1.2096-.3021.2611-.5974.5433-.9088.8448-.7968.7664-1.6217 1.5608-2.666 2.035-1.1275.5122-1.8796.7304-2.5168.7304-2.1065 0-2.4105-2.3521-2.5739-3.6151-.2692-2.0824-.4805-4.1995-.685-6.2464-.1791-1.7746-.363-3.6089-.5812-5.4034-.0908-.7322-.2574-1.4608-.4345-2.2309-.2058-.8982-.419-1.8275-.5047-2.7866-.1604-1.774-.2375-3.5722-.3115-5.3114-.0459-1.1164-.0957-2.2707-.1665-3.3995-.0529-.8565-.1629-1.7255-.2816-2.6442-.0566-.4488-.1156-.9075-.1703-1.3849l-.0684-.6005 5.7584-3.8041.5426.7702c1.3768 1.9468 1.3196 3.9788 1.2718 5.7702-.0087.2511-.0156.5003-.0174.749-.0118.9989-.0566 2.0077-.0995 2.9842-.0789 1.7877-.1597 3.6375-.0379 5.4153.2462 3.5778.6552 7.2154 1.048 10.7342.1392 1.2319.2785 2.4645.409 3.6965.0479.4451.1237.8864.2095 1.3451.514-.4848 1.0324-.964 1.539-1.4333 1.8524-1.7131 3.7693-3.4859 5.3258-5.4433 2.1581-2.7132 3.8694-5.9604 5.4336-9.0528.483-.9522.677-2.3837.549-4.0278-.175-2.2067-.447-4.5258-1.2387-6.5335-.5383-1.3619-1.7286-2.776-2.9618-3.5151-3.1216-1.8759-5.948-2.7866-8.6401-2.7866-.8074 0-1.6198.0833-2.4136.2474-2.3241.4817-4.6557 1.3625-6.71 2.1414-.2201.0827-.5999.685-.8025 1.0088l-.1392.2194c-1.2849 2.0084-2.7903 2.4286-3.8259 2.4286-.7167 0-1.4502-.2008-2.1787-.5955l-1.0927-.5918.8304-.9292c.1648-.1859.3208-.3829.4861-.5924.391-.4998.7988-1.0157 1.3706-1.3911.6906-.45 1.3899-.9311 2.068-1.3967 2.0531-1.411 4.1765-2.8699 6.5099-3.8458 2.8158-1.1804 5.6863-1.7777 8.5331-1.7777 1.835 0 3.6885.2499 5.511.7409 3.0203.8149 5.5961 2.5025 8.1061 5.3102 1.968 2.2011 2.348 4.8509 2.717 7.4143.074.5159.148 1.0312.236 1.5434zm177.389-15.245c.274-1.5266.725-3.3218 1.275-4.9969.578-1.7653 1.223-3.2777 1.846-4.363-.004.1797-.023.3394-.064.4756-.847 2.7244-1.828 5.5768-3.057 8.8843zm26.953 2.7816c-.154-.0889-.312-.1821-.47-.2772-.816-.4867-1.742-1.0387-2.769-1.0872-2.714-.1249-5.608-.1815-9.114-.1815-.88 0-1.76.0031-2.639.0087-2.421.0168-4.796.0964-7.31.1834-.622.0205-1.249.0416-1.882.0621.176-.4357.35-.8652.521-1.2891.805-1.9941 1.564-3.8787 2.256-5.7876.593-1.6392.988-3.3199 1.369-4.9447.255-1.0785-.238-2.6101-.857-3.5673-.449-.6925-.955-1.0953-1.505-1.1991-.192-.0366-.381-.0553-.565-.0553-1.695 0-2.527 1.4589-2.974 2.2408-2.663 4.6712-4.434 9.2977-5.408 14.1144-.026.0709-.129.2039-.213.2822h-.368c-.582 0-1.165.0068-1.747.0155-.574.0087-1.146.0168-1.72.0168-2.037 0-4.214-.0982-6.319-.8149-.137-.0466-.29-.0709-.452-.0709-.358 0-1.437.1884-1.674 1.0244-.309 1.0803-.564 2.1812-.811 3.2472-.075.3269-.151.6558-.228.9827l-.212.8895 1.598.506c.94.2977 1.881.5955 2.822.8907.205.064.396.0765.557.0796.641.0112 1.28.0192 1.92.0298 1.88.028 3.823.0572 5.73.1194-.02.2666-.036.5314-.051.7912-.074 1.1953-.143 2.3241-.554 3.2223-1.831 4.0037-3.942 8.2106-6.647 13.2398-.958 1.7796-2.035 3.5468-3.08 5.2568-.787 1.2873-1.599 2.6181-2.362 3.9583-.175.307-.304.6265-.424.9473-.252.2281-.503.4543-.73.6619-.607.5508-1.129 1.0263-1.667 1.4794-.555.4712-1.274.7633-1.874.7633-.222 0-.524-.041-.711-.2368-.99-1.0312-1.957-2.1426-2.325-3.2919-.704-2.1998-1.117-4.5724-1.517-6.8673l-.137-.7963c-1.008-5.7353-1.026-11.8486-.054-19.8224.146-1.194.329-2.4111.504-3.5859.23-1.5471.469-3.1483.634-4.7402.161-1.5565-.184-2.8991-.971-3.7786-.563-.6297-1.333-.9759-2.166-.9759-.177 0-.358.0155-.538.0447-1.206.2027-2.382.6372-3.314 1.2221-4.464 2.804-8.05 6.6771-10.961 11.8418-.852 1.5123-1.687 3.0669-2.502 4.5985.022-.2318.044-.4637.064-.6962.303-3.2465.616-6.6056.803-9.9255.153-2.7362.07-5.5482-.249-8.359-.238-2.1097-1.296-2.4249-1.906-2.4249-.671 0-1.348.3773-2.13 1.1854-2.506 2.5908-4.979 5.2251-7.296 7.704l-.15.1603c-4.346 4.647-8.84 9.4537-12.3 15.0281-.613.9883-1.076 2.0494-1.524 3.0756-.197.4519-.4.9187-.611 1.3625l-.365.7714 2.247 1.4881.527-.8497c4.981-8.0042 11.28-14.6365 17.952-21.6443.47 5.9486.047 11.9438-.367 17.7625-.063.8876-.126 1.7759-.186 2.6654-.356 5.2648-.495 10.6471-.631 15.8535-.06 2.3036-.121 4.6849-.2 7.0438l-.066 1.9456 1.591-1.1046c1.85-1.2835 3.587-2.8742 3.762-5.7956.181-2.9979.414-6.1997.907-9.2909l.047-.2959c.625-3.934 1.272-8.001 2.376-11.8343 1.667-5.7982 5.066-10.5334 10.101-14.0765.399-.2803 1.228-.5557 1.7-.5663.2.3171.314.9231.415 1.4664.054.2853.109.5762.179.8652-1.459 8.6196-2.539 17.8924-.615 27.3175.563 2.763 1.441 5.672 2.846 9.4332.61 1.6335 2.201 2.6877 4.151 2.7499.093.0031.184.0056.275.0056 2.977 0 5.699-1.5074 7.415-3.9427l.532.2231.461-.455c2.666-2.6312 4.267-5.9193 5.813-9.1006.409-.8373.831-1.7044 1.263-2.5386 1.419-2.7381 2.785-5.5557 4.106-8.2801.134-.2754.268-.552.402-.8274.039.3295.077.6558.115.9796.164 1.4055.332 2.8593.624 4.2716.537 2.5964 1.42 5.1299 2.274 7.5821l.182.5234c1.09 3.1371 3.194 5.6887 6.087 7.3813 3.222 1.8847 6.258 2.8021 9.277 2.8021 1.456 0 2.921-.2219 4.355-.6564.397-.1206.798-.2331 1.196-.3462 2.322-.6539 4.722-1.3302 6.517-3.451.053-.0603.153-.1486.253-.235.403-.3531 1.629-1.4247.499-2.9979l-.483-.6676-.737.363c-.062.033-.129.0591-.194.0852-.233.0951-.522.2144-.785.455-1.637 1.5023-3.798 2.219-6.805 2.2532l-.28.0019c-6.987 0-11.722-3.162-14.902-9.9516-1.692-3.6158-2.512-7.7885-2.577-13.1329-.022-1.8157.083-3.3752.313-4.7421.069-.1871.493-.5538.689-.5955.285-.0571.61-.0845 1.024-.0845.271 0 .544.0118.816.0218.299.0112.599.023.896.023.161 0 .318-.0031.478-.0106l1.598-.0777c4.934-.2406 10.036-.4898 15.054-.8 2.193-.1361 4.403-.4618 6.355-.749.735-.1094 1.507-.8224 1.686-1.5577.177-.7198-.286-1.7597-.953-2.137z" fill="#000"/></svg>