<svg width="525" height="141" viewBox="0 0 525 141" fill="none" xmlns="http://www.w3.org/2000/svg">
<path fill-rule="evenodd" clip-rule="evenodd" d="M0 91.5C0 95.5 1.1 98.6 3.2 100.7C5.4 102.7 8.1 103.7 11.4 103.7C14.7 103.7 17.4 102.7 19.6 100.7C21.8 98.6 22.8 95.6 22.8 91.5V70.5H40.2C45.7 70.5 50.5 69.7 54.6 68C58.8 66.3 62.4 64 65.2 60.9C68.1 57.8 70.3 54.2 71.7 50C73.2 45.9 74 41.3 74 36.5C74 30.9 73 25.9 71 21.7C69.1 17.4 66.6 13.8 63.4 11C60.2 8.09999 56.5 5.89999 52.4 4.49999C48.3 3.09999 44 2.39999 39.6 2.39999H11.4C8.4 2.39999 5.7 3.39999 3.4 5.39999C1.1 7.39999 0 10.2 0 13.9V91.5ZM22.9 22.6H35.2C39.7 22.6 43.3 23.8 46.1 26.1C48.9 28.5 50.3 31.9 50.3 36.4C50.3 38.2 50 39.9 49.3 41.6C48.6 43.2 47.7 44.7 46.3 46C45.1 47.2 43.5 48.2 41.6 49C39.7 49.8 37.6 50.1 35.1 50.1H22.9V22.6Z" fill="#CE181E"/>
<path fill-rule="evenodd" clip-rule="evenodd" d="M113.8 13.6C113.8 9.6 112.7 6.5 110.6 4.6C108.4 2.5 105.7 1.5 102.4 1.5C99.1 1.5 96.4 2.5 94.2 4.6C92 6.6 91 9.6 91 13.6V91.5C91 95.5 92.1 98.6 94.2 100.7C96.4 102.7 99.1 103.7 102.4 103.7C105.7 103.7 108.4 102.7 110.6 100.7C112.8 98.6 113.8 95.6 113.8 91.5V13.6Z" fill="#CE181E"/>
<path fill-rule="evenodd" clip-rule="evenodd" d="M172.3 29.7L159.5 11.9C157.5 9.1 155.6 6.6 153.7 4.6C151.8 2.5 149.3 1.5 146.2 1.5C142.2 1.5 139.1 2.6 137.2 4.9C135.2 7.2 134.2 9.6 134.2 12.1C134.2 14 134.6 15.7 135.3 17.3C136.1 18.9 137.1 20.5 138.4 22.2L158.4 48.7L134 81.4C132.1 83.8 130.8 85.8 130 87.2C129.3 88.5 129 90.3 129 92.4C129 95.7 130 98.4 132.1 100.4C134.3 102.5 136.9 103.5 140.1 103.5C142.2 103.5 144.1 103.1 145.7 102.2C147.4 101.3 149.2 99.4 151.2 96.7L172.1 68.2L193 96.7C195 99.4 196.8 101.3 198.5 102.2C200.2 103 202.1 103.5 204.1 103.5C207.3 103.5 209.9 102.5 212 100.4C214.2 98.3 215.2 95.6 215.2 92.4C215.2 90.2 214.8 88.5 214.1 87.2C213.4 85.8 212.2 83.9 210.3 81.4L185.9 48.7L205.9 22.2C207.2 20.5 208.3 18.9 209 17.3C209.8 15.7 210.1 14 210.1 12.1C210.1 9.6 209.1 7.2 207.1 4.9C205.1 2.6 202.1 1.5 198.1 1.5C195 1.5 192.5 2.5 190.6 4.6C188.7 6.7 186.8 9.1 184.8 11.9L172.3 29.7Z" fill="#CE181E"/>
<path fill-rule="evenodd" clip-rule="evenodd" d="M226.1 88.5C226.1 91.3 227.2 93.8 229.5 95.8C231.8 97.8 234.6 99.6 238 101C241.4 102.3 245 103.3 248.9 104C252.8 104.7 256.5 105 259.9 105C265.3 105 270.3 104.3 274.9 103C279.6 101.7 283.6 99.7 287 96.9C290.5 94.1 293.2 90.5 295.2 86.3C297.3 82.1 298.3 77.1 298.3 71.3C298.3 66.5 297.6 62.5 296.2 59.3C294.9 56 293 53.2 290.7 51C288.4 48.7 285.9 46.9 282.9 45.5C280 44.1 277 42.9 273.9 41.8C269.9 40.5 266.6 39.4 263.9 38.6C261.2 37.8 259 37 257.3 36.2C255.6 35.4 254.4 34.6 253.6 33.7C252.8 32.8 252.5 31.6 252.5 30.2C252.5 27.8 253.4 25.8 255.3 24.3C257.3 22.8 259.8 22 262.9 22C265.3 22 267.4 22.2 269 22.6C270.7 23 272.2 23.4 273.5 24C274.9 24.5 276.3 24.9 277.6 25.3C279 25.7 280.6 25.9 282.4 25.9C285.4 25.9 287.9 24.9 289.7 22.9C291.6 20.8 292.5 18.2 292.5 15.1C292.5 10.7 290.1 7.1 285.2 4.2C280.3 1.4 273.3 0 264 0C259.2 0 254.6 0.7 250.3 2C246 3.3 242.1 5.3 238.7 7.9C235.4 10.5 232.8 13.9 230.8 17.9C228.8 21.9 227.8 26.7 227.8 32.2C227.8 36.7 228.5 40.5 229.9 43.6C231.3 46.6 233.1 49.2 235.4 51.2C237.7 53.2 240.2 54.8 243.2 56C246.1 57.2 249 58.3 252 59.2C255.3 60.2 258.3 61.2 260.9 62C263.5 62.8 265.8 63.7 267.7 64.7C269.7 65.5 271.2 66.6 272.2 67.9C273.2 69.1 273.8 70.7 273.8 72.6C273.8 75 272.9 77.3 271.1 79.2C269.3 81.1 266.2 82 261.6 82C258.7 82 256 81.7 253.6 81.2C251.2 80.5 249 79.9 247 79.2C245 78.4 243.2 77.8 241.5 77.2C239.9 76.5 238.4 76.2 237 76.2C233.5 76.2 230.8 77.5 229 80C227 82.6 226.1 85.4 226.1 88.5Z" fill="#F68B1F"/>
<path fill-rule="evenodd" clip-rule="evenodd" d="M316.6 91.3C316.6 95 317.7 97.8 320 99.8C322.4 101.8 325 102.8 328 102.8H363.8C367.4 102.8 370.2 101.9 372.1 100C374.2 98 375.2 95.4 375.2 92.2C375.2 88.9 374.2 86.3 372.1 84.4C370.1 82.5 367.3 81.6 363.8 81.6H339.4V62.8H361C364.6 62.8 367.3 61.9 369.3 60C371.4 58.1 372.4 55.5 372.4 52.2C372.4 48.9 371.4 46.3 369.3 44.4C367.3 42.5 364.5 41.6 361 41.6H339.4V23.4H363C366.6 23.4 369.4 22.5 371.3 20.6C373.4 18.7 374.4 16.1 374.4 12.8C374.4 9.60001 373.4 7.10001 371.3 5.20001C369.3 3.20001 366.5 2.20001 363 2.20001H328C325 2.20001 322.3 3.20001 320 5.20001C317.7 7.20001 316.6 10 316.6 13.7V91.3Z" fill="#F68B1F"/>
<path fill-rule="evenodd" clip-rule="evenodd" d="M391.8 91.3C391.8 95 392.9 97.8 395.2 99.8C397.6 101.8 400.2 102.8 403.2 102.8H439.2C442.8 102.8 445.5 101.9 447.5 100C449.6 98 450.6 95.4 450.6 92.2C450.6 88.9 449.6 86.3 447.5 84.4C445.5 82.5 442.8 81.6 439.2 81.6H414.6V13.6C414.6 9.6 413.5 6.5 411.4 4.6C409.2 2.5 406.5 1.5 403.2 1.5C399.9 1.5 397.2 2.5 395 4.6C392.8 6.6 391.8 9.6 391.8 13.6V91.3Z" fill="#F68B1F"/>
<path fill-rule="evenodd" clip-rule="evenodd" d="M464.3 91.3C464.3 95 465.4 97.8 467.7 99.8C470.1 101.8 472.7 102.8 475.7 102.8H511.7C515.3 102.8 518.1 101.9 520 100C522.1 98 523.1 95.4 523.1 92.2C523.1 88.9 522.1 86.3 520 84.4C518 82.5 515.3 81.6 511.7 81.6H487.1V13.6C487.1 9.6 486 6.5 483.9 4.6C481.7 2.5 479 1.5 475.7 1.5C472.4 1.5 469.7 2.5 467.5 4.6C465.3 6.6 464.3 9.6 464.3 13.6V91.3Z" fill="#F68B1F"/>
<path d="M98.8 138.2V123C98.8 122.3 99 121.8 99.4 121.5C99.8 121.1 100.3 120.9 101 120.9H105.9C107.2 120.9 108.5 121.2 109.6 121.7C110.7 122.2 111.6 123 112.2 124C112.8 125 113.1 126.1 113.1 127.4C113.1 128.4 112.9 129.3 112.5 130.1C112.1 130.9 111.6 131.6 111 132.1C110.4 132.7 109.6 133.1 108.8 133.4C107.9 133.7 107 133.8 106.1 133.8H103V138.2C103 138.9 102.8 139.4 102.4 139.8C102 140.2 101.5 140.3 100.9 140.3C100.3 140.3 99.8 140.1 99.4 139.7C99 139.3 98.8 138.8 98.8 138.2ZM103 124.4V130.1H105.8C106.7 130.1 107.3 129.8 107.9 129.3C108.4 128.8 108.7 128.1 108.7 127.2C108.7 126.7 108.6 126.2 108.3 125.7C108.1 125.3 107.7 124.9 107.3 124.7C106.9 124.4 106.4 124.3 105.8 124.3H103V124.4Z" fill="#CE181E"/>
<path d="M121.8 138.2V122.9C121.8 122.2 122 121.7 122.4 121.4C122.8 121 123.3 120.8 123.9 120.8C124.5 120.8 125 121 125.4 121.3C125.8 121.7 126 122.2 126 122.8V128.5H134.8V122.8C134.8 122.1 135 121.6 135.4 121.3C135.8 120.9 136.3 120.7 136.9 120.7C137.5 120.7 138 120.9 138.4 121.2C138.8 121.6 139 122.1 139 122.7V138C139 138.7 138.8 139.2 138.4 139.5C138 139.9 137.5 140 136.9 140C136.3 140 135.8 139.8 135.4 139.4C135 139 134.8 138.5 134.8 137.9V132H126V137.9C126 138.6 125.8 139.1 125.4 139.4C125 139.8 124.5 139.9 123.9 139.9C123.3 139.9 122.8 139.7 122.4 139.3C122 139.3 121.8 138.8 121.8 138.2Z" fill="#CE181E"/>
<path d="M157.7 140.4C155.8 140.4 154.2 140 152.7 139.1C151.2 138.2 150.1 137 149.3 135.5C148.5 134 148.1 132.3 148.1 130.5C148.1 129.1 148.3 127.8 148.8 126.6C149.3 125.4 149.9 124.3 150.8 123.4C151.7 122.5 152.7 121.8 153.8 121.3C155 120.8 156.3 120.6 157.7 120.6C159.1 120.6 160.4 120.9 161.6 121.4C162.8 121.9 163.8 122.6 164.7 123.5C165.6 124.4 166.2 125.5 166.7 126.7C167.2 127.9 167.4 129.2 167.4 130.6C167.4 132 167.2 133.3 166.7 134.5C166.2 135.7 165.6 136.8 164.7 137.7C163.8 138.6 162.8 139.3 161.6 139.8C160.4 140.2 159.1 140.4 157.7 140.4ZM157.8 136.7C158.7 136.7 159.4 136.5 160.1 136.2C160.8 135.9 161.3 135.4 161.8 134.8C162.2 134.2 162.6 133.6 162.8 132.8C163 132.1 163.1 131.3 163.1 130.4C163.1 129.3 162.9 128.2 162.5 127.3C162.1 126.4 161.5 125.6 160.7 125C159.9 124.4 159 124.1 157.8 124.1C156.6 124.1 155.7 124.4 154.9 125C154.1 125.6 153.5 126.3 153.1 127.3C152.7 128.3 152.5 129.3 152.5 130.4C152.5 132.2 153 133.6 153.9 134.8C154.8 136.1 156.1 136.7 157.8 136.7Z" fill="#CE181E"/>
<path d="M179.9 138.2V124.6H176.9C176.3 124.6 175.8 124.4 175.5 124.1C175.2 123.7 175 123.3 175 122.8C175 122.5 175.1 122.2 175.2 121.9C175.4 121.6 175.6 121.4 175.9 121.2C176.2 121 176.5 120.9 176.9 120.9H187.2C187.6 120.9 187.9 121 188.2 121.2C188.5 121.4 188.7 121.6 188.9 121.9C189.1 122.2 189.1 122.5 189.1 122.8C189.1 123.3 188.9 123.8 188.6 124.1C188.3 124.5 187.8 124.6 187.2 124.6H184.2V138.2C184.2 138.9 184 139.4 183.6 139.7C183.2 140.1 182.7 140.2 182.1 140.2C181.5 140.2 181 140 180.6 139.7C180.1 139.3 179.9 138.8 179.9 138.2Z" fill="#CE181E"/>
<path d="M206.3 140.4C204.4 140.4 202.8 140 201.3 139.1C199.8 138.2 198.7 137 197.9 135.5C197.1 134 196.7 132.3 196.7 130.5C196.7 129.1 196.9 127.8 197.4 126.6C197.9 125.4 198.5 124.3 199.4 123.4C200.3 122.5 201.3 121.8 202.4 121.3C203.6 120.8 204.9 120.6 206.3 120.6C207.7 120.6 209 120.9 210.2 121.4C211.4 121.9 212.4 122.6 213.3 123.5C214.2 124.4 214.8 125.5 215.3 126.7C215.8 127.9 216 129.2 216 130.6C216 132 215.8 133.3 215.3 134.5C214.8 135.7 214.2 136.8 213.3 137.7C212.4 138.6 211.4 139.3 210.2 139.8C209 140.2 207.7 140.4 206.3 140.4ZM206.3 136.7C207.2 136.7 207.9 136.5 208.6 136.2C209.3 135.9 209.8 135.4 210.3 134.8C210.7 134.2 211.1 133.6 211.3 132.8C211.5 132.1 211.6 131.3 211.6 130.4C211.6 129.3 211.4 128.2 211 127.3C210.6 126.4 210 125.6 209.2 125C208.4 124.4 207.5 124.1 206.3 124.1C205.1 124.1 204.2 124.4 203.4 125C202.6 125.6 202 126.3 201.6 127.3C201.2 128.3 201 129.3 201 130.4C201 132.2 201.5 133.6 202.4 134.8C203.3 136.1 204.6 136.7 206.3 136.7Z" fill="#CE181E"/>
<path d="M242.4 129.5L245.3 132.6L246.4 131.4C246.8 130.9 247.2 130.6 247.5 130.4C247.8 130.2 248.1 130.1 248.6 130.1C249 130.1 249.4 130.3 249.7 130.6C250 130.9 250.1 131.3 250.1 131.8C250.1 132.1 250 132.5 249.7 132.9C249.4 133.3 249.1 133.8 248.6 134.3L247.9 135L249.8 137.1C250 137.3 250.2 137.5 250.3 137.7C250.4 137.9 250.5 138.1 250.5 138.4C250.5 138.9 250.3 139.3 249.9 139.7C249.5 140.1 249.1 140.3 248.5 140.3C247.9 140.3 247.4 140.1 247 139.7L245.1 137.8C244.5 138.3 243.9 138.8 243.2 139.2C242.6 139.6 241.9 139.9 241.2 140.1C240.5 140.3 239.8 140.4 239 140.4C237.7 140.4 236.6 140.2 235.5 139.7C234.5 139.2 233.6 138.6 233 137.7C232.4 136.8 232.1 135.8 232.1 134.5C232.1 133.2 232.5 132.1 233.3 131.1C234.1 130.1 235.1 129.3 236.3 128.6C235.7 128 235.3 127.4 234.9 126.9C234.6 126.3 234.4 125.7 234.4 125C234.4 124 234.7 123.2 235.2 122.5C235.7 121.8 236.5 121.3 237.4 121C238.3 120.7 239.2 120.5 240.2 120.5C241.1 120.5 242 120.7 242.8 121C243.6 121.3 244.4 121.8 245 122.5C245.6 123.2 245.9 123.9 245.9 124.8C245.9 125.8 245.6 126.7 244.9 127.5C244.2 128.3 243.4 129 242.4 129.5ZM242.4 135.3L238.4 131C237.7 131.4 237.1 131.9 236.6 132.4C236.2 132.9 236 133.5 236 134.2C236 135 236.3 135.7 236.8 136.1C237.3 136.5 238 136.8 238.9 136.8C239.6 136.8 240.3 136.7 240.8 136.4C241.3 136.1 241.9 135.8 242.4 135.3ZM242.1 125.2C242.1 124.6 241.9 124.2 241.5 124C241.1 123.8 240.7 123.6 240.2 123.6C239.8 123.6 239.4 123.7 239.1 124C238.7 124.3 238.6 124.6 238.6 125C238.6 125.4 238.7 125.7 238.9 126.1C239.1 126.4 239.5 126.8 240.1 127.4C241.4 126.6 242.1 125.9 242.1 125.2Z" fill="#CE181E"/>
<path d="M272.1 138.7L266 123.7C265.9 123.4 265.8 123 265.8 122.7C265.8 122.1 266 121.7 266.4 121.3C266.8 120.9 267.3 120.7 267.9 120.7C268.7 120.7 269.3 121.1 269.8 122L274.1 133.2L278.4 122C278.8 121.1 279.5 120.7 280.3 120.7C280.9 120.7 281.4 120.9 281.8 121.3C282.2 121.7 282.4 122.1 282.4 122.7C282.4 123 282.3 123.4 282.2 123.7L276.1 138.7C275.9 139.2 275.6 139.6 275.3 139.8C275 140.1 274.6 140.2 274 140.2C273.4 140.2 273 140.1 272.7 139.8C272.4 139.5 272.3 139.2 272.1 138.7Z" fill="#CE181E"/>
<path d="M291.2 138.2V122.9C291.2 122.2 291.4 121.7 291.8 121.4C292.2 121 292.7 120.8 293.3 120.8C293.9 120.8 294.4 121 294.8 121.3C295.2 121.7 295.4 122.2 295.4 122.8V138.1C295.4 138.8 295.2 139.3 294.8 139.6C294.4 140 293.9 140.1 293.3 140.1C292.7 140.1 292.2 139.9 291.8 139.5C291.4 139.3 291.2 138.8 291.2 138.2Z" fill="#CE181E"/>
<path d="M305.4 138.1V123C305.4 122.4 305.6 121.9 306 121.5C306.4 121.1 306.9 120.9 307.5 120.9H312.1C313.7 120.9 315.1 121.1 316.3 121.6C317.5 122.1 318.6 122.7 319.4 123.6C320.2 124.5 320.9 125.5 321.3 126.7C321.7 127.9 321.9 129.3 321.9 130.8C321.9 132.2 321.7 133.5 321.2 134.6C320.7 135.8 320.1 136.7 319.3 137.6C318.5 138.4 317.4 139.1 316.2 139.5C315 139.9 313.7 140.2 312.3 140.2H307.4C307.1 140.2 306.7 140.1 306.4 140C306.1 139.9 305.8 139.7 305.6 139.3C305.5 138.9 305.4 138.5 305.4 138.1ZM309.6 124.6V136.4H312.4C313.6 136.4 314.6 136.1 315.3 135.6C316.1 135.1 316.7 134.4 317 133.5C317.4 132.6 317.6 131.6 317.6 130.5C317.6 129.3 317.4 128.3 317 127.4C316.6 126.5 316 125.8 315.2 125.3C314.4 124.8 313.3 124.5 312.1 124.5H309.6V124.6Z" fill="#CE181E"/>
<path d="M331.5 138.1V123.3C331.5 122.6 331.7 122 332.1 121.6C332.5 121.2 333 121 333.7 121H340.6C341.2 121 341.7 121.2 342.1 121.5C342.4 121.9 342.6 122.3 342.6 122.8C342.6 123.1 342.5 123.4 342.4 123.7C342.3 124 342 124.2 341.7 124.4C341.4 124.6 341 124.7 340.6 124.7H335.7V128.6H340.3C341 128.6 341.5 128.8 341.8 129.1C342.1 129.4 342.3 129.9 342.3 130.4C342.3 130.9 342.1 131.3 341.8 131.7C341.4 132.1 340.9 132.3 340.3 132.3H335.7V136.4H340.9C341.5 136.4 342 136.6 342.4 136.9C342.7 137.3 342.9 137.7 342.9 138.2C342.9 138.5 342.8 138.8 342.7 139.1C342.5 139.4 342.3 139.6 342 139.8C341.7 140 341.3 140.1 340.9 140.1H333.7C333.1 140.1 332.6 139.9 332.2 139.5C331.7 139.2 331.5 138.7 331.5 138.1Z" fill="#CE181E"/>
<path d="M360.7 140.4C358.8 140.4 357.2 140 355.7 139.1C354.2 138.2 353.1 137 352.3 135.5C351.5 134 351.1 132.3 351.1 130.5C351.1 129.1 351.3 127.8 351.8 126.6C352.3 125.4 352.9 124.3 353.8 123.4C354.7 122.5 355.7 121.8 356.8 121.3C358 120.8 359.3 120.6 360.7 120.6C362.1 120.6 363.4 120.9 364.5 121.4C365.7 121.9 366.7 122.6 367.6 123.5C368.5 124.4 369.1 125.5 369.6 126.7C370.1 127.9 370.3 129.2 370.3 130.6C370.3 132 370.1 133.3 369.6 134.5C369.1 135.7 368.5 136.8 367.6 137.7C366.7 138.6 365.7 139.3 364.5 139.8C363.4 140.2 362.1 140.4 360.7 140.4ZM360.7 136.7C361.6 136.7 362.3 136.5 363 136.2C363.7 135.9 364.2 135.4 364.7 134.8C365.1 134.2 365.5 133.6 365.7 132.8C365.9 132.1 366 131.3 366 130.4C366 129.3 365.8 128.2 365.4 127.3C365 126.4 364.4 125.6 363.6 125C362.8 124.4 361.9 124.1 360.7 124.1C359.6 124.1 358.6 124.4 357.8 125C357 125.6 356.4 126.3 356 127.3C355.6 128.3 355.4 129.3 355.4 130.4C355.4 132.2 355.9 133.6 356.8 134.8C357.7 136.1 359 136.7 360.7 136.7Z" fill="#CE181E"/>
<path d="M386 137.5L391.6 122.8C391.9 122.1 392.3 121.6 392.8 121.2C393.3 120.8 393.9 120.6 394.6 120.6C395.3 120.6 395.9 120.8 396.4 121.2C396.9 121.6 397.3 122.1 397.5 122.8L403 137.5C403.1 137.9 403.2 138.2 403.2 138.5C403.2 138.8 403.1 139.2 402.9 139.4C402.7 139.7 402.5 139.9 402.2 140C401.9 140.1 401.6 140.2 401.2 140.2C400.2 140.2 399.5 139.7 399.2 138.8L398.4 136.3H390.6L389.8 138.8C389.5 139.7 388.8 140.2 387.8 140.2C387.2 140.2 386.7 140 386.3 139.7C385.9 139.3 385.7 138.9 385.7 138.4C385.8 138.1 385.9 137.8 386 137.5ZM394.6 124.8L392 132.6H397.3L394.6 124.8Z" fill="#CE181E"/>
<path d="M422.8 128.7H427.5C428.4 128.7 429 128.9 429.4 129.3C429.8 129.7 430 130.4 430 131.3C430 132.6 429.8 133.8 429.4 134.9C429 136 428.4 137 427.6 137.8C426.8 138.6 425.8 139.3 424.7 139.7C423.6 140.2 422.3 140.4 420.9 140.4C419 140.4 417.4 140 415.9 139.1C414.4 138.2 413.3 137 412.5 135.5C411.7 134 411.3 132.3 411.3 130.5C411.3 129.1 411.5 127.8 412 126.6C412.5 125.4 413.1 124.3 414 123.4C414.9 122.5 415.9 121.8 417 121.3C418.2 120.8 419.5 120.6 420.9 120.6C421.9 120.6 422.9 120.7 423.9 120.9C424.9 121.1 425.7 121.4 426.4 121.8C427.1 122.2 427.6 122.6 428 123C428.4 123.5 428.6 123.9 428.6 124.4C428.6 125 428.4 125.4 428.1 125.8C427.8 126.1 427.4 126.3 426.9 126.3C426.4 126.3 425.8 126.1 425.1 125.6C424.4 125.2 423.8 124.8 423.3 124.6C422.8 124.4 422 124.3 421 124.3C419.9 124.3 418.9 124.6 418.1 125.2C417.3 125.8 416.7 126.5 416.3 127.5C415.9 128.4 415.7 129.5 415.7 130.6C415.7 132.4 416.2 133.8 417.1 135C418 136.2 419.3 136.8 421 136.8C421.8 136.8 422.5 136.7 423.3 136.4C424 136.1 424.6 135.6 425.1 135C425.6 134.4 425.8 133.6 425.8 132.6H423C422.4 132.6 422 132.4 421.6 132.1C421.2 131.8 421 131.3 421 130.7C421 130.2 421.2 129.7 421.6 129.4C421.8 128.9 422.2 128.7 422.8 128.7Z" fill="#CE181E"/>
<path d="M439.2 138.1V123.3C439.2 122.6 439.4 122 439.8 121.6C440.2 121.2 440.7 121 441.4 121H448.3C448.9 121 449.4 121.2 449.8 121.5C450.1 121.9 450.3 122.3 450.3 122.8C450.3 123.1 450.2 123.4 450.1 123.7C450 124 449.7 124.2 449.4 124.4C449.1 124.6 448.7 124.7 448.3 124.7H443.4V128.6H448C448.7 128.6 449.2 128.8 449.5 129.1C449.8 129.4 450 129.9 450 130.4C450 130.9 449.8 131.3 449.5 131.7C449.1 132.1 448.6 132.3 448 132.3H443.4V136.4H448.6C449.2 136.4 449.7 136.6 450.1 136.9C450.4 137.3 450.6 137.7 450.6 138.2C450.6 138.5 450.5 138.8 450.4 139.1C450.2 139.4 450 139.6 449.7 139.8C449.4 140 449 140.1 448.6 140.1H441.4C440.8 140.1 440.3 139.9 439.9 139.5C439.4 139.2 439.2 138.7 439.2 138.1Z" fill="#CE181E"/>
<path d="M459.4 138.2V122.9C459.4 122.2 459.6 121.7 460 121.4C460.4 121 460.9 120.8 461.5 120.8C461.8 120.8 462.1 120.9 462.5 121.1C462.9 121.3 463.1 121.5 463.3 121.7L472.2 133.1H472.3V122.9C472.3 122.2 472.5 121.7 472.9 121.4C473.3 121.1 473.8 120.8 474.4 120.8C475 120.8 475.5 121 475.9 121.3C476.3 121.7 476.5 122.2 476.5 122.8V138.1C476.5 138.8 476.3 139.3 475.9 139.6C475.5 140 475 140.1 474.4 140.1C474.1 140.1 473.8 140 473.5 139.8C473.2 139.6 472.9 139.4 472.6 139.2L463.8 127.9H463.7V138C463.7 138.7 463.5 139.2 463.1 139.5C462.7 139.9 462.2 140 461.6 140C461 140 460.5 139.8 460.1 139.4C459.6 139.3 459.4 138.8 459.4 138.2Z" fill="#CE181E"/>
<path d="M485.4 130.5C485.4 129.1 485.6 127.8 486.1 126.6C486.6 125.4 487.2 124.3 488.1 123.4C489 122.5 490 121.8 491.1 121.3C492.3 120.8 493.6 120.6 495 120.6C495.6 120.6 496.2 120.7 496.9 120.8C497.6 120.9 498.3 121.1 498.9 121.3C499.5 121.5 500 121.8 500.4 122.2C500.8 122.6 501 123.1 501 123.6C501 124.1 500.8 124.5 500.5 124.9C500.2 125.3 499.8 125.4 499.3 125.4C499 125.4 498.6 125.3 498 125.1C497.4 124.9 497 124.7 496.6 124.6C496.2 124.5 495.7 124.4 495 124.4C494.1 124.4 493.4 124.6 492.7 124.9C492 125.2 491.5 125.7 491.1 126.2C490.7 126.8 490.3 127.4 490.1 128.2C489.9 129 489.8 129.7 489.8 130.6C489.8 132.3 490.3 133.7 491.2 134.9C492.1 136.1 493.4 136.6 495.1 136.6C495.8 136.6 496.3 136.5 496.7 136.4C497.1 136.3 497.6 136.1 498.2 135.8C498.8 135.5 499.2 135.4 499.5 135.4C500.1 135.4 500.5 135.6 500.8 136C501.1 136.4 501.3 136.8 501.3 137.2C501.3 138 501 138.6 500.3 139.1C499.6 139.6 498.8 139.9 497.8 140.1C496.8 140.3 495.9 140.4 495.1 140.4C493.2 140.4 491.6 140 490.1 139.1C488.6 138.2 487.5 137 486.7 135.5C485.8 134 485.4 132.3 485.4 130.5Z" fill="#CE181E"/>
<path d="M514.8 138.3V131.1L509.5 123.9C509.2 123.5 509.1 123.1 509.1 122.7C509.1 122.2 509.3 121.7 509.7 121.3C510.1 120.9 510.6 120.7 511.1 120.7C511.9 120.7 512.4 121 512.8 121.5L516.8 127.1L520.8 121.5C521.2 121 521.7 120.7 522.5 120.7C523.1 120.7 523.6 120.9 523.9 121.3C524.3 121.7 524.5 122.1 524.5 122.7C524.5 123.2 524.4 123.6 524.1 123.9L518.8 131.1V138.3C518.8 138.9 518.6 139.3 518.3 139.7C518 140.1 517.4 140.3 516.7 140.3C516 140.3 515.5 140.1 515.1 139.7C515 139.3 514.8 138.8 514.8 138.3Z" fill="#CE181E"/>
</svg>
